#Comment line ignore any data following # character 
#Hierarchical Translation and Rotation (.htr) file 
[Header]	
#Header keywords are followed by a single value 
FileType HTR		#Single word string
DataType HTRS		#Translation followed by rotation and scale data
FileVersion 1		#integer
NumSegments 29		#integer
NumFrames 5		#integer
DataFrameRate 30		#integer, data frame rate in this file
EulerRotationOrder ZYX
CalibrationUnits mm
RotationUnits Degrees
GlobalAxisofGravity Y
BoneLengthAxis Y
ScaleFactor 1.00
[SegmentNames&Hierarchy]
#CHILD	PARENT
MASTER GLOBAL
weapon MASTER
back_slider weapon
front_bottom weapon
front_middle_part1 weapon
front_middle_part2 weapon
front_middle_part3 weapon
front_middle_part4 weapon
front_top weapon
wing_bottom_left weapon
wing_bottom_right weapon
wing_top_left weapon
wing_top_right weapon
front_bottom_rumble_left front_bottom
front_bottom_rumble_right front_bottom
back_rotate_bottom_left front_middle_part3
back_rotate_bottom_right front_middle_part3
back_rotate_top_left front_middle_part3
back_rotate_top_right front_middle_part3
front_middle_part3_left front_middle_part3
front_middle_part3_right front_middle_part3
wing_bottom_left_buckets_1 wing_bottom_left
wing_bottom_left_buckets_2 wing_bottom_left
wing_bottom_left_buckets_3 wing_bottom_left
wing_bottom_right_buckets wing_bottom_right
wing_top_left_buckets wing_top_left
wing_top_left_buckets_1 wing_top_left
wing_top_left_buckets_3 wing_top_left
wing_top_right_buckets wing_top_right
[BasePosition]
#SegmentName Tx, Ty, Tz, Rx, Ry, Rz, BoneLength
MASTER 0.000000 0.000000 0.000000 -90.000000 0.000000 0.000000 10.000000 
weapon 0.000000 0.000000 0.000000 0.000000 0.000000 0.000000 10.000000 
back_slider 0.000000 0.000000 0.000000 0.000000 0.000000 0.000000 10.000000 
front_bottom 0.000000 0.000000 0.000000 0.000000 0.000000 0.000000 10.000000 
front_middle_part1 0.000000 0.000000 0.000000 0.000000 0.000000 0.000000 10.000000 
front_middle_part2 0.000000 0.000000 0.000000 0.000000 0.000000 0.000000 10.000000 
front_middle_part3 0.000000 0.000000 0.000000 0.000000 0.000000 0.000000 10.000000 
front_middle_part4 0.000000 0.000000 0.000000 0.000000 0.000000 0.000000 10.000000 
front_top 0.000000 0.000000 0.000000 0.000000 0.000000 0.000000 10.000000 
wing_bottom_left 0.000000 0.000000 0.000000 0.000000 0.000000 0.000000 10.000000 
wing_bottom_right 0.000000 0.000000 0.000000 0.000000 0.000000 0.000000 10.000000 
wing_top_left 0.000000 0.000000 0.000000 0.000000 0.000000 0.000000 10.000000 
wing_top_right 0.000000 0.000000 0.000000 0.000000 0.000000 0.000000 10.000000 
front_bottom_rumble_left 0.000000 0.000000 0.000000 0.000000 0.000000 0.000000 10.000000 
front_bottom_rumble_right 0.000000 0.000000 0.000000 0.000000 0.000000 0.000000 10.000000 
back_rotate_bottom_left 0.000000 0.000000 0.000000 0.000000 0.000000 0.000000 10.000000 
back_rotate_bottom_right 0.000000 0.000000 0.000000 0.000000 0.000000 0.000000 10.000000 
back_rotate_top_left 0.000000 0.000000 0.000000 0.000000 0.000000 0.000000 10.000000 
back_rotate_top_right 0.000000 0.000000 0.000000 0.000000 0.000000 0.000000 10.000000 
front_middle_part3_left 0.000000 0.000000 0.000000 0.000000 0.000000 0.000000 10.000000 
front_middle_part3_right 0.000000 0.000000 0.000000 0.000000 0.000000 0.000000 10.000000 
wing_bottom_left_buckets_1 0.000000 0.000000 0.000000 0.000000 0.000000 0.000000 10.000000 
wing_bottom_left_buckets_2 0.000000 0.000000 0.000000 0.000000 0.000000 0.000000 10.000000 
wing_bottom_left_buckets_3 0.000000 0.000000 0.000000 0.000000 0.000000 0.000000 10.000000 
wing_bottom_right_buckets 0.000000 0.000000 0.000000 0.000000 0.000000 0.000000 10.000000 
wing_top_left_buckets 0.000000 0.000000 0.000000 0.000000 0.000000 0.000000 10.000000 
wing_top_left_buckets_1 0.000000 0.000000 0.000000 0.000000 0.000000 0.000000 10.000000 
wing_top_left_buckets_3 0.000000 0.000000 0.000000 0.000000 0.000000 0.000000 10.000000 
wing_top_right_buckets 0.000000 0.000000 0.000000 0.000000 0.000000 0.000000 10.000000 
#Beginning of Data. Separated by tabs
#Fr	Tx	Ty	Tz	Rx	Ry	Rz	SF
[MASTER]
1 -0.000019 0.000000 0.000000 0.000000 -0.000000 0.000000 0.000019
2 -0.000019 0.000000 0.000000 0.000000 -0.000000 0.000000 0.000019
3 -0.000019 0.000000 0.000000 0.000000 -0.000000 0.000000 0.000019
4 -0.000019 0.000000 0.000000 0.000000 -0.000000 0.000000 0.000019
5 -0.000019 0.000000 0.000000 0.000000 -0.000000 0.000000 0.000019
[weapon]
1 -0.000076 -79.014702 86.001579 0.000000 0.000000 -0.000020 116.788681
2 -0.000076 -79.014702 86.001579 0.000000 0.000000 -0.000020 116.788681
3 -0.000076 -79.014702 86.001579 0.000000 0.000000 -0.000020 116.788681
4 -0.000076 -79.014702 86.001579 0.000000 0.000000 -0.000020 116.788681
5 -0.000076 -79.014702 86.001579 0.000000 0.000000 -0.000020 116.788681
[back_slider]
1 0.000038 57.957649 -85.991821 0.000000 -0.000000 0.000000 103.699966
2 0.000076 57.641563 -85.991974 0.000000 -0.000000 0.000000 103.523758
3 0.000038 56.716957 -85.991974 0.000000 -0.000000 0.000000 103.011810
4 0.000038 55.218697 -85.991821 0.000000 -0.000000 0.000000 102.194412
5 0.000000 53.181801 -85.991974 0.000000 -0.000000 0.000000 101.108467
[front_bottom]
1 0.000038 665.472656 -215.581360 9.999685 -0.001509 179.998199 699.520691
2 0.000019 665.694763 -215.598969 9.989758 -0.001509 179.998199 699.737427
3 0.000000 665.916870 -215.616592 9.964931 -0.001509 179.998199 699.954102
4 0.000000 666.554260 -215.666870 9.920258 -0.001510 179.998199 700.576050
5 0.000000 667.191650 -215.717148 9.853242 -0.001511 179.998199 701.197937
[front_middle_part1]
1 0.000000 519.313477 -85.992035 0.001660 0.001660 0.001660 526.384949
2 0.000000 519.313477 -85.992035 0.001656 -0.255518 0.001656 526.384949
3 0.000000 519.313477 -85.992035 0.001645 -1.002329 0.001645 526.384949
4 0.000000 519.313477 -85.992035 0.001629 -2.204252 0.001629 526.384949
5 0.000000 519.313477 -85.992035 0.001607 -3.827011 0.001607 526.384949
[front_middle_part2]
1 0.000000 477.040344 -85.992035 0.001660 0.001660 0.001660 484.728912
2 0.000000 477.040344 -85.992035 0.001662 0.184647 0.001662 484.728912
3 0.000000 477.040344 -85.992035 0.001671 0.738574 0.001671 484.728912
4 0.000000 477.040344 -85.992035 0.001684 1.648633 0.001684 484.728912
5 0.000000 477.040344 -85.992035 0.001704 2.914981 0.001704 484.728912
[front_middle_part3]
1 0.000038 -175.936279 -85.991974 0.000000 -0.000000 0.000000 195.826950
2 0.000038 -176.122162 -85.991974 0.000000 -0.000000 0.000000 195.993973
3 0.000038 -176.663010 -85.991974 0.000000 -0.000000 0.000000 196.480118
4 0.000076 -177.533447 -85.991974 0.000000 -0.000000 0.000000 197.263123
5 0.000057 -178.847519 -85.992050 0.000000 -0.000000 0.000000 198.446640
[front_middle_part4]
1 0.000000 -443.853668 -85.992035 0.000000 -0.000000 0.000000 452.106964
2 0.000000 -443.853668 -85.992035 0.000000 -0.000000 0.000000 452.106964
3 0.000000 -443.853668 -85.992035 0.000000 -0.000000 0.000000 452.106964
4 0.000000 -443.853668 -85.992035 0.000000 -0.000000 0.000000 452.106964
5 0.000000 -443.853668 -85.992035 0.000000 -0.000000 0.000000 452.106964
[front_top]
1 0.000000 523.450867 -157.672882 0.001660 0.001660 0.001660 546.682312
2 0.000038 523.868713 -157.694550 -0.037908 0.001660 0.001659 547.088684
3 0.000000 525.088013 -157.757858 -0.146712 0.001662 0.001658 548.274536
4 0.000038 527.056824 -157.859802 -0.319810 0.001664 0.001655 550.189575
5 0.000038 529.723511 -157.998352 -0.562154 0.001668 0.001652 552.784302
[wing_bottom_left]
1 -124.333710 235.191696 -217.766312 179.996094 54.997871 179.996094 343.796692
2 -124.333710 235.191696 -217.766312 179.960892 54.997860 179.949905 343.796692
3 -124.333710 235.191696 -217.766312 179.839996 54.997746 179.803329 343.796692
4 -124.333710 235.191696 -217.766312 179.641052 54.997227 179.560394 343.796692
5 -124.333710 235.191696 -217.766312 179.372025 54.995918 179.236343 343.796692
[wing_bottom_right]
1 124.947586 235.191696 -217.766144 0.000000 54.999989 0.000000 344.019073
2 124.947586 235.191696 -217.766144 0.000000 54.999989 0.000000 344.019073
3 124.947586 235.191696 -217.766144 0.000000 54.999989 0.000000 344.019073
4 124.947586 235.191696 -217.766144 0.000000 54.999989 0.000000 344.019073
5 124.947586 235.191696 -217.766144 0.000000 54.999989 0.000000 344.019073
[wing_top_left]
1 -124.333710 235.191696 62.502743 179.998779 -54.999702 179.998779 273.277527
2 -124.333710 235.191696 62.502743 -179.946762 -54.999691 179.936951 273.277527
3 -124.333710 235.191696 62.502743 -179.806259 -54.999512 179.763458 273.277527
4 -124.333710 235.191696 62.502743 -179.564453 -54.998756 179.470306 273.277527
5 -124.333710 235.191696 62.502743 -179.252258 -54.996899 179.084778 273.277527
[wing_top_right]
1 131.595657 235.191696 62.502682 -0.000000 -55.000015 0.000000 276.657074
2 131.595657 235.191696 62.502682 -0.000000 -55.000015 0.000000 276.657074
3 131.595657 235.191696 62.502682 -0.000000 -55.000015 0.000000 276.657074
4 131.595657 235.191696 62.502682 -0.000000 -55.000015 0.000000 276.657074
5 131.595657 235.191696 62.502682 -0.000000 -55.000015 0.000000 276.657074
[front_bottom_rumble_left]
1 163.070297 263.743958 -16.969442 -129.881882 18.229330 75.387009 310.549133
2 163.070297 263.743958 -16.969442 -129.881882 18.229330 75.387009 310.549133
3 163.070297 263.743958 -16.969442 -129.881882 18.229330 75.387009 310.549133
4 163.070297 263.743958 -16.969442 -129.881882 18.229330 75.387009 310.549133
5 163.070297 263.743958 -16.969442 -129.881882 18.229330 75.387009 310.549133
[front_bottom_rumble_right]
1 -163.070480 263.743835 -16.969442 -50.118145 18.229362 104.612976 310.549133
2 -163.070480 263.743835 -16.969442 -50.118145 18.229362 104.612976 310.549133
3 -163.070480 263.743835 -16.969442 -50.118145 18.229362 104.612976 310.549133
4 -163.070480 263.743835 -16.969442 -50.118145 18.229362 104.612976 310.549133
5 -163.070480 263.743835 -16.969442 -50.118145 18.229362 104.612976 310.549133
[back_rotate_bottom_left]
1 -38.067558 -195.870575 -38.097980 0.000000 -0.000000 0.000000 203.140045
2 -38.067558 -195.870575 -38.097980 0.000000 -0.000000 0.000000 203.140045
3 -38.067558 -195.870575 -38.097980 0.000000 -0.000000 0.000000 203.140045
4 -38.067558 -195.870575 -38.097980 0.000000 -0.000000 0.000000 203.140045
5 -38.067558 -195.870575 -38.097980 0.000000 -0.000000 0.000000 203.140045
[back_rotate_bottom_right]
1 38.098610 -195.870575 -38.057903 0.000000 -0.000000 0.000000 203.138351
2 38.098610 -195.870575 -38.057903 0.000000 -0.000000 0.000000 203.138351
3 38.098610 -195.870575 -38.057903 0.000000 -0.000000 0.000000 203.138351
4 38.098610 -195.870575 -38.057903 0.000000 -0.000000 0.000000 203.138351
5 38.098610 -195.870575 -38.057903 0.000000 -0.000000 0.000000 203.138351
[back_rotate_top_left]
1 -38.074085 -195.870575 38.105885 0.000000 -0.000000 0.000000 203.142746
2 -38.074085 -195.870575 38.105885 0.000000 -0.000000 0.000000 203.142746
3 -38.074085 -195.870575 38.105885 0.000000 -0.000000 0.000000 203.142746
4 -38.074085 -195.870575 38.105885 0.000000 -0.000000 0.000000 203.142746
5 -38.074085 -195.870575 38.105885 0.000000 -0.000000 0.000000 203.142746
[back_rotate_top_right]
1 38.111603 -195.870575 38.079086 0.000000 -0.000000 0.000000 203.144760
2 38.111603 -195.870575 38.079086 0.000000 -0.000000 0.000000 203.144760
3 38.111603 -195.870575 38.079086 0.000000 -0.000000 0.000000 203.144760
4 38.111603 -195.870575 38.079086 0.000000 -0.000000 0.000000 203.144760
5 38.111603 -195.870575 38.079086 0.000000 -0.000000 0.000000 203.144760
[front_middle_part3_left]
1 -90.176392 364.727203 0.462952 90.002296 -0.000000 0.002347 375.709900
2 -90.176392 364.727203 0.462952 90.002296 -0.000000 0.002347 375.709900
3 -90.176392 364.727203 0.462952 90.002296 -0.000000 0.002347 375.709900
4 -90.176392 364.727203 0.462952 90.002296 -0.000000 0.002347 375.709900
5 -90.176392 364.727203 0.462952 90.002296 -0.000000 0.002347 375.709900
[front_middle_part3_right]
1 91.046051 364.727081 0.046265 -90.000000 0.000003 180.000000 375.919159
2 91.046051 364.727081 0.046265 -90.000000 0.000003 180.000000 375.919159
3 91.046051 364.727081 0.046265 -90.000000 0.000003 180.000000 375.919159
4 91.046051 364.727081 0.046265 -90.000000 0.000003 180.000000 375.919159
5 91.046051 364.727081 0.046265 -90.000000 0.000003 180.000000 375.919159
[wing_bottom_left_buckets_1]
1 -47.610477 -288.454193 -9.889640 -0.000027 0.000020 -0.000035 292.524170
2 -47.610477 -288.454193 -9.889640 -0.000027 0.000020 -0.000035 292.524170
3 -47.610477 -288.454193 -9.889640 -0.000027 0.000020 -0.000035 292.524170
4 -47.610477 -288.454193 -9.889640 -0.000027 0.000020 -0.000035 292.524170
5 -47.610477 -288.454193 -9.889640 -0.000027 0.000020 -0.000035 292.524170
[wing_bottom_left_buckets_2]
1 -47.610565 -358.672546 -9.889595 -0.000031 -0.000003 -0.000031 361.953827
2 -47.610565 -358.672546 -9.889595 -0.000031 -0.000003 -0.000031 361.953827
3 -47.610565 -358.672546 -9.889595 -0.000031 -0.000003 -0.000031 361.953827
4 -47.610565 -358.672546 -9.889595 -0.000031 -0.000003 -0.000031 361.953827
5 -47.610565 -358.672546 -9.889595 -0.000031 -0.000003 -0.000031 361.953827
[wing_bottom_left_buckets_3]
1 -47.610672 -428.104828 -9.889513 -0.000027 0.000020 -0.000035 430.857635
2 -47.610672 -428.104828 -9.889513 -0.000027 0.000020 -0.000035 430.857635
3 -47.610672 -428.104828 -9.889513 -0.000027 0.000020 -0.000035 430.857635
4 -47.610672 -428.104828 -9.889513 -0.000027 0.000020 -0.000035 430.857635
5 -47.610672 -428.104828 -9.889513 -0.000027 0.000020 -0.000035 430.857635
[wing_bottom_right_buckets]
1 -47.962635 -358.672546 9.386807 0.000027 0.000061 -0.000035 361.986908
2 -47.962635 -358.672546 9.386807 0.000027 0.000061 -0.000035 361.986908
3 -47.962635 -358.672546 9.386807 0.000027 0.000061 -0.000035 361.986908
4 -47.962635 -358.672546 9.386807 0.000027 0.000061 -0.000035 361.986908
5 -47.962635 -358.672546 9.386807 0.000027 0.000061 -0.000035 361.986908
[wing_top_left_buckets]
1 -45.484066 -358.586609 10.598831 0.001660 0.001660 0.001660 361.615112
2 -45.484066 -358.586609 10.598831 0.001668 0.560522 0.001668 361.615112
3 -45.484066 -358.586609 10.598831 0.001676 1.114458 0.001676 361.615112
4 -45.484066 -358.586609 10.598831 0.001672 0.847381 0.001672 361.615112
5 -45.484066 -358.586609 10.598831 0.001668 0.580309 0.001668 361.615112
[wing_top_left_buckets_1]
1 -45.484005 -287.973450 10.598879 0.000027 0.000000 -0.000035 291.735931
2 -45.484005 -287.973450 10.598879 0.000027 0.000000 -0.000035 291.735931
3 -45.484005 -287.973450 10.598879 0.000027 0.000000 -0.000035 291.735931
4 -45.484005 -287.973450 10.598879 0.000027 0.000000 -0.000035 291.735931
5 -45.484005 -287.973450 10.598879 0.000027 0.000000 -0.000035 291.735931
[wing_top_left_buckets_3]
1 -45.484154 -426.601654 10.598794 0.000027 0.000000 -0.000035 429.150452
2 -45.484154 -426.601654 10.598794 0.000027 0.000000 -0.000035 429.150452
3 -45.484154 -426.601654 10.598794 0.000027 0.000000 -0.000035 429.150452
4 -45.484154 -426.601654 10.598794 0.000027 0.000000 -0.000035 429.150452
5 -45.484154 -426.601654 10.598794 0.000027 0.000000 -0.000035 429.150452
[wing_top_right_buckets]
1 -46.906902 -358.586700 -9.449236 -0.000044 -0.000038 -0.000035 361.765076
2 -46.906902 -358.586700 -9.449236 -0.000044 -0.000038 -0.000035 361.765076
3 -46.906902 -358.586700 -9.449236 -0.000044 -0.000038 -0.000035 361.765076
4 -46.906902 -358.586700 -9.449236 -0.000044 -0.000038 -0.000035 361.765076
5 -46.906902 -358.586700 -9.449236 -0.000044 -0.000038 -0.000035 361.765076
